<svg width="31" height="31" viewBox="0 0 31 31" fill="none" xmlns="http://www.w3.org/2000/svg">
<g id="Sun">
<path fill-rule="evenodd" clip-rule="evenodd" d="M19.3555 6.19191L15.5 0L11.6445 6.19191L4.53984 4.53984L6.19191 11.6445L0 15.5L6.19191 19.3555L4.53984 26.4602L11.6445 24.8081L15.5 31L19.3555 24.8081L26.4602 26.4602L24.8081 19.3555L31 15.5L24.8081 11.6445L26.4602 4.53984L19.3555 6.19191ZM15.5 21.7C18.9242 21.7 21.7 18.9242 21.7 15.5C21.7 12.0758 18.9242 9.3 15.5 9.3C12.0758 9.3 9.3 12.0758 9.3 15.5C9.3 18.9242 12.0758 21.7 15.5 21.7Z" stroke="black" stroke-width="2" mask="url(#path-1-inside-1_295_21)"/>
</g>
<g id="Moon">
<g id="Ellipse 1">
<path d="M27.125 15.5C27.125 21.9203 21.9203 27.125 15.5 27.125C9.07969 27.125 3.875 21.9203 3.875 15.5C11.625 28.675 29.8375 15.8875 15.5 3.875C21.9203 3.875 27.125 9.07969 27.125 15.5Z" stroke="black" stroke-width="2" mask="url(#path-2-inside-2_295_21)"/>
</g>
</g>
</svg>
