<svg width="31" height="31" viewBox="0 0 31 31" fill="none" xmlns="http://www.w3.org/2000/svg">
<g id="Theme-toggle01">
<g id="Sun">
<mask id="path-1-inside-1_295_21" fill="white">
<path fill-rule="evenodd" clip-rule="evenodd" d="M19.3555 6.19191L15.5 0L11.6445 6.19191L4.53984 4.53984L6.19191 11.6445L0 15.5L6.19191 19.3555L4.53984 26.4602L11.6445 24.8081L15.5 31L19.3555 24.8081L26.4602 26.4602L24.8081 19.3555L31 15.5L24.8081 11.6445L26.4602 4.53984L19.3555 6.19191ZM15.5 21.7C18.9242 21.7 21.7 18.9242 21.7 15.5C21.7 12.0758 18.9242 9.3 15.5 9.3C12.0758 9.3 9.3 12.0758 9.3 15.5C9.3 18.9242 12.0758 21.7 15.5 21.7Z"/>
</mask>
<path fill-rule="evenodd" clip-rule="evenodd" d="M19.3555 6.19191L15.5 0L11.6445 6.19191L4.53984 4.53984L6.19191 11.6445L0 15.5L6.19191 19.3555L4.53984 26.4602L11.6445 24.8081L15.5 31L19.3555 24.8081L26.4602 26.4602L24.8081 19.3555L31 15.5L24.8081 11.6445L26.4602 4.53984L19.3555 6.19191ZM15.5 21.7C18.9242 21.7 21.7 18.9242 21.7 15.5C21.7 12.0758 18.9242 9.3 15.5 9.3C12.0758 9.3 9.3 12.0758 9.3 15.5C9.3 18.9242 12.0758 21.7 15.5 21.7Z" stroke="black" stroke-width="2" mask="url(#path-1-inside-1_295_21)"/>
</g>
<g id="Moon">
<g id="Ellipse 1">
<mask id="path-2-inside-2_295_21" fill="white">
<path d="M27.125 15.5C27.125 21.9203 21.9203 27.125 15.5 27.125C9.07969 27.125 3.875 21.9203 3.875 15.5C11.625 28.675 29.8375 15.8875 15.5 3.875C21.9203 3.875 27.125 9.07969 27.125 15.5Z"/>
</mask>
<path d="M27.125 15.5C27.125 21.9203 21.9203 27.125 15.5 27.125C9.07969 27.125 3.875 21.9203 3.875 15.5C11.625 28.675 29.8375 15.8875 15.5 3.875C21.9203 3.875 27.125 9.07969 27.125 15.5Z" stroke="black" stroke-width="2" mask="url(#path-2-inside-2_295_21)"/>
</g>
<g id="Star 1">
<mask id="path-3-inside-3_295_21" fill="white">
<path d="M13.175 3.1L13.523 4.17102H14.6491L13.7381 4.83295L14.0861 5.90398L13.175 5.24205L12.2639 5.90398L12.6119 4.83295L11.7009 4.17102H12.827L13.175 3.1Z"/>
</mask>
<path d="M13.175 3.1L14.1261 2.79098L13.175 -0.136068L12.2239 2.79098L13.175 3.1ZM13.523 4.17102L12.5719 4.48004L12.7965 5.17102H13.523V4.17102ZM14.6491 4.17102L15.2369 4.98004L17.7268 3.17102H14.6491V4.17102ZM13.7381 4.83295L13.1503 4.02394L12.5625 4.45099L12.787 5.14197L13.7381 4.83295ZM14.0861 5.90398L13.4983 6.71299L15.9882 8.52201L15.0371 5.59496L14.0861 5.90398ZM13.175 5.24205L13.7628 4.43303L13.175 4.00598L12.5872 4.43303L13.175 5.24205ZM12.2639 5.90398L11.3129 5.59496L10.3618 8.52201L12.8517 6.71299L12.2639 5.90398ZM12.6119 4.83295L13.563 5.14197L13.7875 4.45099L13.1997 4.02394L12.6119 4.83295ZM11.7009 4.17102V3.17102H8.62318L11.1131 4.98004L11.7009 4.17102ZM12.827 4.17102V5.17102H13.5535L13.7781 4.48004L12.827 4.17102ZM12.2239 3.40902L12.5719 4.48004L14.4741 3.86201L14.1261 2.79098L12.2239 3.40902ZM13.523 5.17102H14.6491V3.17102H13.523V5.17102ZM14.0614 3.36201L13.1503 4.02394L14.3259 5.64197L15.2369 4.98004L14.0614 3.36201ZM12.787 5.14197L13.135 6.21299L15.0371 5.59496L14.6891 4.52394L12.787 5.14197ZM14.6739 5.09496L13.7628 4.43303L12.5872 6.05106L13.4983 6.71299L14.6739 5.09496ZM12.5872 4.43303L11.6761 5.09496L12.8517 6.71299L13.7628 6.05106L12.5872 4.43303ZM13.215 6.21299L13.563 5.14197L11.6609 4.52394L11.3129 5.59496L13.215 6.21299ZM13.1997 4.02394L12.2886 3.36201L11.1131 4.98004L12.0241 5.64197L13.1997 4.02394ZM11.7009 5.17102H12.827V3.17102H11.7009V5.17102ZM13.7781 4.48004L14.1261 3.40902L12.2239 2.79098L11.8759 3.86201L13.7781 4.48004Z" fill="black" mask="url(#path-3-inside-3_295_21)"/>
</g>
<g id="Star 4">
<mask id="path-5-inside-4_295_21" fill="white">
<path d="M15.8875 6.975L16.1485 7.77827H16.9931L16.3098 8.27471L16.5708 9.07798L15.8875 8.58154L15.2042 9.07798L15.4652 8.27471L14.7819 7.77827H15.6265L15.8875 6.975Z"/>
</mask>
<path d="M15.8875 6.975L16.8385 6.66598L15.8875 3.73893L14.9364 6.66598L15.8875 6.975ZM16.1485 7.77827L15.1974 8.08728L15.4219 8.77827H16.1485V7.77827ZM16.9931 7.77827L17.5809 8.58728L20.0708 6.77827H16.9931V7.77827ZM16.3098 8.27471L15.722 7.4657L15.1342 7.89275L15.3587 8.58373L16.3098 8.27471ZM16.5708 9.07798L15.983 9.887L18.4729 11.696L17.5218 8.76897L16.5708 9.07798ZM15.8875 8.58154L16.4753 7.77252L15.8875 7.34547L15.2997 7.77252L15.8875 8.58154ZM15.2042 9.07798L14.2531 8.76897L13.3021 11.696L15.792 9.887L15.2042 9.07798ZM15.4652 8.27471L16.4162 8.58373L16.6407 7.89275L16.053 7.4657L15.4652 8.27471ZM14.7819 7.77827V6.77827H11.7042L14.1941 8.58728L14.7819 7.77827ZM15.6265 7.77827V8.77827H16.353L16.5775 8.08728L15.6265 7.77827ZM14.9364 7.28402L15.1974 8.08728L17.0995 7.46925L16.8385 6.66598L14.9364 7.28402ZM16.1485 8.77827H16.9931V6.77827H16.1485V8.77827ZM16.4053 6.96925L15.722 7.4657L16.8976 9.08373L17.5809 8.58728L16.4053 6.96925ZM15.3587 8.58373L15.6197 9.387L17.5218 8.76897L17.2608 7.9657L15.3587 8.58373ZM17.1586 8.26897L16.4753 7.77252L15.2997 9.39055L15.983 9.887L17.1586 8.26897ZM15.2997 7.77252L14.6164 8.26897L15.792 9.887L16.4753 9.39055L15.2997 7.77252ZM16.1552 9.387L16.4162 8.58373L14.5141 7.9657L14.2531 8.76897L16.1552 9.387ZM16.053 7.4657L15.3697 6.96925L14.1941 8.58728L14.8774 9.08373L16.053 7.4657ZM14.7819 8.77827H15.6265V6.77827H14.7819V8.77827ZM16.5775 8.08728L16.8385 7.28402L14.9364 6.66598L14.6754 7.46925L16.5775 8.08728Z" fill="black" mask="url(#path-5-inside-4_295_21)"/>
</g>
<g id="Star 2">
<mask id="path-7-inside-5_295_21" fill="white">
<path d="M14.725 5.425L14.899 5.96051H15.4621L15.0065 6.29148L15.1805 6.82699L14.725 6.49602L14.2695 6.82699L14.4435 6.29148L13.9879 5.96051H14.551L14.725 5.425Z"/>
</mask>
<path d="M14.725 5.425L15.6761 5.11598L14.725 2.18893L13.774 5.11598L14.725 5.425ZM14.899 5.96051L13.948 6.26953L14.1725 6.96051H14.899V5.96051ZM15.4621 5.96051L16.0499 6.76953L18.5398 4.96051H15.4621V5.96051ZM15.0065 6.29148L14.4188 5.48246L13.831 5.90951L14.0555 6.60049L15.0065 6.29148ZM15.1805 6.82699L14.5928 7.63601L17.0827 9.44502L16.1316 6.51797L15.1805 6.82699ZM14.725 6.49602L15.3128 5.68701L14.725 5.25996L14.1372 5.68701L14.725 6.49602ZM14.2695 6.82699L13.3184 6.51797L12.3674 9.44502L14.8573 7.63601L14.2695 6.82699ZM14.4435 6.29148L15.3945 6.60049L15.619 5.90951L15.0313 5.48246L14.4435 6.29148ZM13.9879 5.96051V4.96051H10.9103L13.4002 6.76953L13.9879 5.96051ZM14.551 5.96051V6.96051H15.2776L15.5021 6.26953L14.551 5.96051ZM13.774 5.73402L13.948 6.26953L15.8501 5.65149L15.6761 5.11598L13.774 5.73402ZM14.899 6.96051H15.4621V4.96051H14.899V6.96051ZM14.8743 5.15149L14.4188 5.48246L15.5943 7.10049L16.0499 6.76953L14.8743 5.15149ZM14.0555 6.60049L14.2295 7.13601L16.1316 6.51797L15.9576 5.98246L14.0555 6.60049ZM15.7683 6.01797L15.3128 5.68701L14.1372 7.30504L14.5928 7.63601L15.7683 6.01797ZM14.1372 5.68701L13.6817 6.01797L14.8573 7.63601L15.3128 7.30504L14.1372 5.68701ZM15.2205 7.13601L15.3945 6.60049L13.4924 5.98246L13.3184 6.51797L15.2205 7.13601ZM15.0313 5.48246L14.5757 5.15149L13.4002 6.76953L13.8557 7.10049L15.0313 5.48246ZM13.9879 6.96051H14.551V4.96051H13.9879V6.96051ZM15.5021 6.26953L15.6761 5.73402L13.774 5.11598L13.6 5.65149L15.5021 6.26953Z" fill="black" mask="url(#path-7-inside-5_295_21)"/>
</g>
<g id="Star 3">
<mask id="path-9-inside-6_295_21" fill="white">
<path d="M13.175 6.2L13.349 6.73551H13.9121L13.4566 7.06648L13.6306 7.60199L13.175 7.27102L12.7195 7.60199L12.8935 7.06648L12.438 6.73551H13.001L13.175 6.2Z"/>
</mask>
<path d="M13.175 6.2L14.1261 5.89098L13.175 2.96393L12.224 5.89098L13.175 6.2ZM13.349 6.73551L12.398 7.04453L12.6225 7.73551H13.349V6.73551ZM13.9121 6.73551L14.4999 7.54453L16.9898 5.73551H13.9121V6.73551ZM13.4566 7.06648L12.8688 6.25746L12.281 6.68451L12.5055 7.37549L13.4566 7.06648ZM13.6306 7.60199L13.0428 8.41101L15.5327 10.22L14.5816 7.29297L13.6306 7.60199ZM13.175 7.27102L13.7628 6.46201L13.175 6.03496L12.5872 6.46201L13.175 7.27102ZM12.7195 7.60199L11.7684 7.29297L10.8174 10.22L13.3073 8.41101L12.7195 7.60199ZM12.8935 7.06648L13.8445 7.37549L14.0691 6.68451L13.4813 6.25746L12.8935 7.06648ZM12.438 6.73551V5.73551H9.36027L11.8502 7.54453L12.438 6.73551ZM13.001 6.73551V7.73551H13.7276L13.9521 7.04453L13.001 6.73551ZM12.224 6.50902L12.398 7.04453L14.3001 6.42649L14.1261 5.89098L12.224 6.50902ZM13.349 7.73551H13.9121V5.73551H13.349V7.73551ZM13.3243 5.92649L12.8688 6.25746L14.0443 7.87549L14.4999 7.54453L13.3243 5.92649ZM12.5055 7.37549L12.6795 7.91101L14.5816 7.29297L14.4076 6.75746L12.5055 7.37549ZM14.2183 6.79297L13.7628 6.46201L12.5872 8.08004L13.0428 8.41101L14.2183 6.79297ZM12.5872 6.46201L12.1317 6.79297L13.3073 8.41101L13.7628 8.08004L12.5872 6.46201ZM13.6705 7.91101L13.8445 7.37549L11.9424 6.75746L11.7684 7.29297L13.6705 7.91101ZM13.4813 6.25746L13.0257 5.92649L11.8502 7.54453L12.3057 7.87549L13.4813 6.25746ZM12.438 7.73551H13.001V5.73551H12.438V7.73551ZM13.9521 7.04453L14.1261 6.50902L12.224 5.89098L12.05 6.42649L13.9521 7.04453Z" fill="black" mask="url(#path-9-inside-6_295_21)"/>
</g>
</g>
</g>
</svg>
