<svg width="68" height="37" viewBox="0 0 68 37" fill="none" xmlns="http://www.w3.org/2000/svg">
<g id="Theme-toggle02">
<path id="checkbox" d="M49.5 1H18.5C8.83502 1 1 8.83502 1 18.5C1 28.165 8.83502 36 18.5 36H49.5C59.165 36 67 28.165 67 18.5C67 8.83502 59.165 1 49.5 1Z" stroke="black"/>
<g id="radio-toggle">
<circle id="button" cx="18.5" cy="18.5" r="16" stroke="black"/>
<path id="Sun" d="M22.4688 9.67892L28.7913 8.20872L27.3211 14.5312L27.24 14.8798L27.5438 15.0689L33.0541 18.5L27.5438 21.9311L27.24 22.1202L27.3211 22.4688L28.7913 28.7913L22.4688 27.3211L22.1202 27.24L21.9311 27.5438L18.5 33.0541L15.0689 27.5438L14.8798 27.24L14.5312 27.3211L8.20872 28.7913L9.67892 22.4688L9.75997 22.1202L9.4562 21.9311L3.94593 18.5L9.4562 15.0689L9.75997 14.8798L9.67892 14.5312L8.20872 8.20872L14.5312 9.67892L14.8798 9.75997L15.0689 9.4562L18.5 3.94593L21.9311 9.4562L22.1202 9.75997L22.4688 9.67892ZM18.5 25.2C22.2003 25.2 25.2 22.2003 25.2 18.5C25.2 14.7997 22.2003 11.8 18.5 11.8C14.7997 11.8 11.8 14.7997 11.8 18.5C11.8 22.2003 14.7997 25.2 18.5 25.2Z" stroke="black"/>
<g id="Moon">
<path id="Ellipse 1" d="M29.625 18.5C29.625 24.6442 24.6442 29.625 18.5 29.625C12.9888 29.625 8.41364 25.6176 7.52943 20.3578C9.37326 22.7256 11.6224 24.0126 13.888 24.423C16.61 24.9162 19.3124 24.1353 21.2869 22.5198C23.2655 20.901 24.5209 18.4358 24.3209 15.577C24.1421 13.0226 22.8072 10.2188 19.9111 7.46365C25.389 8.15706 29.625 12.8338 29.625 18.5Z" stroke="black"/>
<g id="Star 1">
<mask id="path-5-inside-1_295_20" fill="white">
<path d="M16.175 6.1L16.523 7.17102H17.6491L16.7381 7.83295L17.0861 8.90397L16.175 8.24205L15.2639 8.90397L15.6119 7.83295L14.7009 7.17102H15.827L16.175 6.1Z"/>
</mask>
<path d="M16.175 6.1L17.1261 5.79098L16.175 2.86393L15.2239 5.79098L16.175 6.1ZM16.523 7.17102L15.5719 7.48004L15.7965 8.17102H16.523V7.17102ZM17.6491 7.17102L18.2369 7.98004L20.7268 6.17102H17.6491V7.17102ZM16.7381 7.83295L16.1503 7.02393L15.5625 7.45099L15.787 8.14197L16.7381 7.83295ZM17.0861 8.90397L16.4983 9.71299L18.9882 11.522L18.0371 8.59496L17.0861 8.90397ZM16.175 8.24205L16.7628 7.43303L16.175 7.00598L15.5872 7.43303L16.175 8.24205ZM15.2639 8.90397L14.3129 8.59496L13.3618 11.522L15.8517 9.71299L15.2639 8.90397ZM15.6119 7.83295L16.563 8.14197L16.7875 7.45099L16.1997 7.02393L15.6119 7.83295ZM14.7009 7.17102V6.17102H11.6232L14.1131 7.98004L14.7009 7.17102ZM15.827 7.17102V8.17102H16.5535L16.7781 7.48004L15.827 7.17102ZM15.2239 6.40902L15.5719 7.48004L17.4741 6.86201L17.1261 5.79098L15.2239 6.40902ZM16.523 8.17102H17.6491V6.17102H16.523V8.17102ZM17.0614 6.36201L16.1503 7.02393L17.3259 8.64197L18.2369 7.98004L17.0614 6.36201ZM15.787 8.14197L16.135 9.21299L18.0371 8.59496L17.6891 7.52393L15.787 8.14197ZM17.6739 8.09496L16.7628 7.43303L15.5872 9.05106L16.4983 9.71299L17.6739 8.09496ZM15.5872 7.43303L14.6761 8.09496L15.8517 9.71299L16.7628 9.05106L15.5872 7.43303ZM16.215 9.21299L16.563 8.14197L14.6609 7.52393L14.3129 8.59496L16.215 9.21299ZM16.1997 7.02393L15.2886 6.36201L14.1131 7.98004L15.0241 8.64197L16.1997 7.02393ZM14.7009 8.17102H15.827V6.17102H14.7009V8.17102ZM16.7781 7.48004L17.1261 6.40902L15.2239 5.79098L14.8759 6.86201L16.7781 7.48004Z" fill="black" mask="url(#path-5-inside-1_295_20)"/>
</g>
<g id="Star 4">
<mask id="path-7-inside-2_295_20" fill="white">
<path d="M18.8875 9.975L19.1485 10.7783H19.9931L19.3098 11.2747L19.5708 12.078L18.8875 11.5815L18.2042 12.078L18.4652 11.2747L17.7819 10.7783H18.6265L18.8875 9.975Z"/>
</mask>
<path d="M18.8875 9.975L19.8385 9.66598L18.8875 6.73893L17.9364 9.66598L18.8875 9.975ZM19.1485 10.7783L18.1974 11.0873L18.4219 11.7783H19.1485V10.7783ZM19.9931 10.7783L20.5809 11.5873L23.0708 9.77827H19.9931V10.7783ZM19.3098 11.2747L18.722 10.4657L18.1342 10.8927L18.3587 11.5837L19.3098 11.2747ZM19.5708 12.078L18.983 12.887L21.4729 14.696L20.5218 11.769L19.5708 12.078ZM18.8875 11.5815L19.4753 10.7725L18.8875 10.3455L18.2997 10.7725L18.8875 11.5815ZM18.2042 12.078L17.2531 11.769L16.3021 14.696L18.792 12.887L18.2042 12.078ZM18.4652 11.2747L19.4162 11.5837L19.6407 10.8927L19.053 10.4657L18.4652 11.2747ZM17.7819 10.7783V9.77827H14.7042L17.1941 11.5873L17.7819 10.7783ZM18.6265 10.7783V11.7783H19.353L19.5775 11.0873L18.6265 10.7783ZM17.9364 10.284L18.1974 11.0873L20.0995 10.4692L19.8385 9.66598L17.9364 10.284ZM19.1485 11.7783H19.9931V9.77827H19.1485V11.7783ZM19.4053 9.96925L18.722 10.4657L19.8976 12.0837L20.5809 11.5873L19.4053 9.96925ZM18.3587 11.5837L18.6197 12.387L20.5218 11.769L20.2608 10.9657L18.3587 11.5837ZM20.1586 11.269L19.4753 10.7725L18.2997 12.3906L18.983 12.887L20.1586 11.269ZM18.2997 10.7725L17.6164 11.269L18.792 12.887L19.4753 12.3906L18.2997 10.7725ZM19.1552 12.387L19.4162 11.5837L17.5141 10.9657L17.2531 11.769L19.1552 12.387ZM19.053 10.4657L18.3697 9.96925L17.1941 11.5873L17.8774 12.0837L19.053 10.4657ZM17.7819 11.7783H18.6265V9.77827H17.7819V11.7783ZM19.5775 11.0873L19.8385 10.284L17.9364 9.66598L17.6754 10.4692L19.5775 11.0873Z" fill="black" mask="url(#path-7-inside-2_295_20)"/>
</g>
<g id="Star 2">
<mask id="path-9-inside-3_295_20" fill="white">
<path d="M17.725 8.425L17.899 8.96051H18.4621L18.0065 9.29148L18.1805 9.82699L17.725 9.49602L17.2695 9.82699L17.4435 9.29148L16.9879 8.96051H17.551L17.725 8.425Z"/>
</mask>
<path d="M17.725 8.425L18.6761 8.11598L17.725 5.18893L16.774 8.11598L17.725 8.425ZM17.899 8.96051L16.948 9.26953L17.1725 9.96051H17.899V8.96051ZM18.4621 8.96051L19.0499 9.76953L21.5398 7.96051H18.4621V8.96051ZM18.0065 9.29148L17.4188 8.48246L16.831 8.90951L17.0555 9.60049L18.0065 9.29148ZM18.1805 9.82699L17.5928 10.636L20.0827 12.445L19.1316 9.51797L18.1805 9.82699ZM17.725 9.49602L18.3128 8.68701L17.725 8.25996L17.1372 8.68701L17.725 9.49602ZM17.2695 9.82699L16.3184 9.51797L15.3674 12.445L17.8573 10.636L17.2695 9.82699ZM17.4435 9.29148L18.3945 9.60049L18.619 8.90951L18.0313 8.48246L17.4435 9.29148ZM16.9879 8.96051V7.96051H13.9103L16.4002 9.76953L16.9879 8.96051ZM17.551 8.96051V9.96051H18.2776L18.5021 9.26953L17.551 8.96051ZM16.774 8.73402L16.948 9.26953L18.8501 8.65149L18.6761 8.11598L16.774 8.73402ZM17.899 9.96051H18.4621V7.96051H17.899V9.96051ZM17.8743 8.15149L17.4188 8.48246L18.5943 10.1005L19.0499 9.76953L17.8743 8.15149ZM17.0555 9.60049L17.2295 10.136L19.1316 9.51797L18.9576 8.98246L17.0555 9.60049ZM18.7683 9.01797L18.3128 8.68701L17.1372 10.305L17.5928 10.636L18.7683 9.01797ZM17.1372 8.68701L16.6817 9.01797L17.8573 10.636L18.3128 10.305L17.1372 8.68701ZM18.2205 10.136L18.3945 9.60049L16.4924 8.98246L16.3184 9.51797L18.2205 10.136ZM18.0313 8.48246L17.5757 8.15149L16.4002 9.76953L16.8557 10.1005L18.0313 8.48246ZM16.9879 9.96051H17.551V7.96051H16.9879V9.96051ZM18.5021 9.26953L18.6761 8.73402L16.774 8.11598L16.6 8.65149L18.5021 9.26953Z" fill="black" mask="url(#path-9-inside-3_295_20)"/>
</g>
<g id="Star 3">
<mask id="path-11-inside-4_295_20" fill="white">
<path d="M16.175 9.2L16.349 9.73551H16.9121L16.4566 10.0665L16.6306 10.602L16.175 10.271L15.7195 10.602L15.8935 10.0665L15.438 9.73551H16.001L16.175 9.2Z"/>
</mask>
<path d="M16.175 9.2L17.1261 8.89098L16.175 5.96393L15.224 8.89098L16.175 9.2ZM16.349 9.73551L15.398 10.0445L15.6225 10.7355H16.349V9.73551ZM16.9121 9.73551L17.4999 10.5445L19.9898 8.73551H16.9121V9.73551ZM16.4566 10.0665L15.8688 9.25746L15.281 9.68451L15.5055 10.3755L16.4566 10.0665ZM16.6306 10.602L16.0428 11.411L18.5327 13.22L17.5816 10.293L16.6306 10.602ZM16.175 10.271L16.7628 9.46201L16.175 9.03496L15.5872 9.46201L16.175 10.271ZM15.7195 10.602L14.7684 10.293L13.8174 13.22L16.3073 11.411L15.7195 10.602ZM15.8935 10.0665L16.8445 10.3755L17.0691 9.68451L16.4813 9.25746L15.8935 10.0665ZM15.438 9.73551V8.73551H12.3603L14.8502 10.5445L15.438 9.73551ZM16.001 9.73551V10.7355H16.7276L16.9521 10.0445L16.001 9.73551ZM15.224 9.50902L15.398 10.0445L17.3001 9.4265L17.1261 8.89098L15.224 9.50902ZM16.349 10.7355H16.9121V8.73551H16.349V10.7355ZM16.3243 8.9265L15.8688 9.25746L17.0443 10.8755L17.4999 10.5445L16.3243 8.9265ZM15.5055 10.3755L15.6795 10.911L17.5816 10.293L17.4076 9.75746L15.5055 10.3755ZM17.2183 9.79297L16.7628 9.46201L15.5872 11.08L16.0428 11.411L17.2183 9.79297ZM15.5872 9.46201L15.1317 9.79297L16.3073 11.411L16.7628 11.08L15.5872 9.46201ZM16.6705 10.911L16.8445 10.3755L14.9424 9.75746L14.7684 10.293L16.6705 10.911ZM16.4813 9.25746L16.0257 8.9265L14.8502 10.5445L15.3057 10.8755L16.4813 9.25746ZM15.438 10.7355H16.001V8.73551H15.438V10.7355ZM16.9521 10.0445L17.1261 9.50902L15.224 8.89098L15.05 9.4265L16.9521 10.0445Z" fill="black" mask="url(#path-11-inside-4_295_20)"/>
</g>
</g>
</g>
</g>
</svg>
