<svg width="68" height="37" viewBox="0 0 68 37" fill="none" xmlns="http://www.w3.org/2000/svg" id="Theme-toggle02">
<path id="checkbox" d="M49.5 1H18.5C8.83502 1 1 8.83502 1 18.5C1 28.165 8.83502 36 18.5 36H49.5C59.165 36 67 28.165 67 18.5C67 8.83502 59.165 1 49.5 1Z"/>
<g id="radio-toggle">
<circle id="button" cx="18.5" cy="18.5" r="16"/>
<path id="Sun" d="M22.4688 9.67892L28.7913 8.20872L27.3211 14.5312L27.24 14.8798L27.5438 15.0689L33.0541 18.5L27.5438 21.9311L27.24 22.1202L27.3211 22.4688L28.7913 28.7913L22.4688 27.3211L22.1202 27.24L21.9311 27.5438L18.5 33.0541L15.0689 27.5438L14.8798 27.24L14.5312 27.3211L8.20872 28.7913L9.67892 22.4688L9.75997 22.1202L9.4562 21.9311L3.94593 18.5L9.4562 15.0689L9.75997 14.8798L9.67892 14.5312L8.20872 8.20872L14.5312 9.67892L14.8798 9.75997L15.0689 9.4562L18.5 3.94593L21.9311 9.4562L22.1202 9.75997L22.4688 9.67892ZM18.5 25.2C22.2003 25.2 25.2 22.2003 25.2 18.5C25.2 14.7997 22.2003 11.8 18.5 11.8C14.7997 11.8 11.8 14.7997 11.8 18.5C11.8 22.2003 14.7997 25.2 18.5 25.2Z"/>
  <g id="Moon">
    <path id="Ellipse 1" d="M29.625 18.5C29.625 24.6442 24.6442 29.625 18.5 29.625C12.9888 29.625 8.41364 25.6176 7.52943 20.3578C9.37326 22.7256 11.6224 24.0126 13.888 24.423C16.61 24.9162 19.3124 24.1353 21.2869 22.5198C23.2655 20.901 24.5209 18.4358 24.3209 15.577C24.1421 13.0226 22.8072 10.2188 19.9111 7.46365C25.389 8.15706 29.625 12.8338 29.625 18.5Z"/>
  </g>
</g>
</svg>
